<?xml version="1.0" standalone="no"?><svg xmlns="http://www.w3.org/2000/svg" viewBox="0 0 1440 320"><path fill="#01060e" fill-opacity="1" d="M0,320L24,282.7C48,245,96,171,144,165.3C192,160,240,224,288,234.7C336,245,384,203,432,170.7C480,139,528,117,576,133.3C624,149,672,203,720,224C768,245,816,235,864,224C912,213,960,203,1008,170.7C1056,139,1104,85,1152,58.7C1200,32,1248,32,1296,53.3C1344,75,1392,117,1416,138.7L1440,160L1440,320L1416,320C1392,320,1344,320,1296,320C1248,320,1200,320,1152,320C1104,320,1056,320,1008,320C960,320,912,320,864,320C816,320,768,320,720,320C672,320,624,320,576,320C528,320,480,320,432,320C384,320,336,320,288,320C240,320,192,320,144,320C96,320,48,320,24,320L0,320Z"></path></svg>